<svg width="162" height="35" viewBox="0 0 162 35" fill="none" xmlns="http://www.w3.org/2000/svg">
<path d="M0.36 35V0.439999H20.52V4.712H4.632V15.584H17.64V19.856H4.632V35H0.36ZM23.88 35L35.448 0.439999H41.4L52.968 35H48.528L37.704 2.936H39.048L28.32 35H23.88ZM29.448 26.912V22.904H47.4V26.912H29.448ZM59.1844 35V0.439999H63.0724L76.1284 27.968L89.1124 0.439999H93.0484V34.976H88.9924V9.824L77.2564 35H74.9764L63.2404 9.824V35H59.1844ZM102.178 35V0.439999H106.45V35H102.178ZM116.051 35V0.439999H120.323V30.944H136.355V35H116.051ZM145.834 35V20.624L134.194 0.439999H139.162L147.994 15.728L156.802 0.439999H161.77L150.154 20.624V35H145.834Z" fill="#FB6A68"/>
</svg>
