<?xml version="1.0" standalone="no"?>
<!DOCTYPE svg PUBLIC "-//W3C//DTD SVG 20010904//EN"
 "http://www.w3.org/TR/2001/REC-SVG-20010904/DTD/svg10.dtd">
<svg version="1.0" xmlns="http://www.w3.org/2000/svg"
 width="64.000000pt" height="64.000000pt" viewBox="0 0 64.000000 64.000000"
 preserveAspectRatio="xMidYMid meet">
<metadata>
Created by potrace 1.16, written by Peter Selinger 2001-2019
</metadata>
<g transform="translate(0.000000,64.000000) scale(0.100000,-0.100000)"
fill="#454545" stroke="none">
<path d="M440 548 c0 -7 14 -27 31 -44 l31 -32 -26 -35 c-46 -60 -32 -75 25
-27 l36 29 28 -29 c29 -30 65 -40 65 -18 0 7 -14 27 -32 45 l-32 33 32 33 c18
18 32 38 32 45 0 22 -36 12 -65 -18 l-29 -30 -31 30 c-31 30 -65 40 -65 18z"/>
<path d="M172 445 c-39 -29 -54 -72 -53 -154 1 -108 45 -257 85 -283 35 -24
86 8 86 53 0 35 19 99 30 99 11 0 30 -64 30 -101 0 -30 28 -59 58 -59 43 0 97
111 109 222 5 49 3 60 -8 56 -7 -2 -19 -30 -25 -61 -14 -70 -42 -146 -62 -169
-22 -26 -38 -7 -45 53 -16 132 -98 132 -114 0 -7 -64 -25 -82 -48 -47 -33 50
-57 133 -62 211 -8 134 22 173 118 153 61 -13 109 -5 109 17 0 10 -12 14 -42
13 -24 -1 -65 2 -93 6 -39 6 -55 4 -73 -9z"/>
</g>
</svg>
