<?xml version="1.0" standalone="no"?>
<!DOCTYPE svg PUBLIC "-//W3C//DTD SVG 20010904//EN"
 "http://www.w3.org/TR/2001/REC-SVG-20010904/DTD/svg10.dtd">
<svg version="1.0" xmlns="http://www.w3.org/2000/svg"
 width="96.000000pt" height="96.000000pt" viewBox="0 0 96.000000 96.000000"
 preserveAspectRatio="xMidYMid meet">

<g transform="translate(0.000000,96.000000) scale(0.100000,-0.100000)"
fill="#45494E" stroke="none">
<path d="M323 870 c-39 -24 -62 -66 -69 -128 -7 -61 11 -171 31 -191 15 -15
17 -14 29 2 10 13 11 28 4 60 -5 23 -8 72 -6 109 6 103 5 103 210 104 l171 0
18 -30 c35 -57 14 -236 -39 -343 -39 -76 0 -84 88 -17 62 47 93 53 98 19 2
-15 -26 -45 -110 -116 -155 -130 -166 -137 -224 -141 -38 -2 -50 -7 -52 -22
-8 -39 65 -49 133 -17 66 31 302 236 310 269 16 77 -56 133 -125 97 l-33 -17
7 33 c42 199 25 296 -59 336 -30 14 -44 15 -113 5 -55 -9 -93 -9 -131 -2 -76
14 -102 13 -138 -10z"/>
<path d="M481 581 c-11 -11 -25 -39 -32 -62 -14 -46 3 -43 -146 -23 -71 9
-148 -27 -204 -98 -66 -84 -64 -106 27 -221 37 -47 50 -57 75 -57 17 0 42 9
56 20 19 14 41 20 80 20 41 0 55 4 60 16 18 47 -104 59 -164 16 l-31 -22 -46
62 c-25 34 -46 67 -46 73 0 17 50 80 85 107 33 26 57 27 260 12 119 -9 120 -9
120 -34 0 -25 -2 -25 -87 -28 -93 -3 -123 -17 -98 -47 20 -24 166 -21 207 4
42 26 51 69 24 120 -11 22 -25 58 -31 81 -20 73 -69 101 -109 61z m53 -63 c9
-35 8 -38 -14 -38 -11 0 -20 3 -20 8 0 19 13 52 20 52 4 0 10 -10 14 -22z"/>
</g>
</svg>
