<?xml version="1.0" standalone="no"?>
<!DOCTYPE svg PUBLIC "-//W3C//DTD SVG 20010904//EN"
 "http://www.w3.org/TR/2001/REC-SVG-20010904/DTD/svg10.dtd">
<svg version="1.0" xmlns="http://www.w3.org/2000/svg"
 width="100.000000pt" height="100.000000pt" viewBox="0 0 100.000000 100.000000"
 preserveAspectRatio="xMidYMid meet">
<metadata>
Created by potrace 1.16, written by Peter Selinger 2001-2019
</metadata>
<g transform="translate(0.000000,100.000000) scale(0.100000,-0.100000)"
fill="#454545" stroke="none">
<path d="M100 769 c-64 -26 -100 -85 -100 -165 0 -44 6 -68 30 -109 16 -28 40
-92 54 -142 13 -50 29 -100 35 -112 14 -26 52 -36 79 -22 23 12 28 32 37 141
11 134 39 134 50 0 9 -109 14 -129 37 -141 27 -14 65 -4 79 22 6 12 22 62 35
111 25 94 48 148 64 148 16 0 39 -54 64 -148 13 -49 29 -99 35 -111 14 -26 52
-36 79 -22 23 12 28 32 37 141 11 134 39 134 50 0 9 -109 14 -129 37 -141 27
-14 65 -4 79 22 6 12 22 62 35 112 14 50 38 114 54 142 56 98 34 217 -50 264
-33 18 -54 21 -173 21 -146 0 -177 -7 -219 -48 l-28 -26 -27 26 c-16 15 -41
32 -56 37 -35 14 -283 13 -317 0z m308 -53 c29 -15 62 -51 62 -68 0 -5 -29 -8
-65 -8 l-65 0 0 30 0 30 -80 0 -80 0 0 -30 0 -30 -65 0 -66 0 16 30 c28 54 85
71 221 65 57 -2 103 -9 122 -19z m480 0 c29 -15 62 -51 62 -68 0 -5 -29 -8
-65 -8 l-65 0 0 30 0 30 -80 0 -80 0 0 -30 0 -30 -65 0 -66 0 16 30 c28 54 85
71 221 65 57 -2 103 -9 122 -19z m-708 -146 l0 -30 80 0 80 0 0 30 0 30 65 0
c77 0 80 -7 36 -86 -17 -28 -37 -80 -46 -115 -24 -97 -36 -129 -46 -129 -5 0
-9 19 -9 43 0 59 -19 169 -32 184 -6 7 -28 13 -50 13 -35 0 -40 -3 -53 -34 -8
-19 -18 -73 -21 -120 -4 -47 -11 -86 -15 -86 -8 0 -29 65 -45 135 -3 17 -22
60 -40 98 -48 94 -47 97 31 97 l65 0 0 -30z m480 0 l0 -30 80 0 80 0 0 30 0
30 65 0 c77 0 80 -7 36 -86 -17 -28 -37 -80 -46 -115 -24 -97 -36 -129 -46
-129 -5 0 -9 19 -9 43 0 59 -19 169 -32 184 -6 7 -28 13 -50 13 -35 0 -40 -3
-53 -34 -8 -19 -18 -73 -21 -120 -4 -47 -11 -86 -15 -86 -8 0 -29 65 -45 135
-3 17 -22 60 -40 98 -48 94 -47 97 31 97 l65 0 0 -30z"/>
</g>
</svg>
