<?xml version="1.0" standalone="no"?>
<!DOCTYPE svg PUBLIC "-//W3C//DTD SVG 20010904//EN"
 "http://www.w3.org/TR/2001/REC-SVG-20010904/DTD/svg10.dtd">
<svg version="1.0" xmlns="http://www.w3.org/2000/svg"
 width="100.000000pt" height="100.000000pt" viewBox="0 0 100.000000 100.000000"
 preserveAspectRatio="xMidYMid meet">

<g transform="translate(0.000000,100.000000) scale(0.100000,-0.100000)"
fill="#45494E" stroke="none">
<path d="M333 991 c-75 -19 -78 -24 -96 -187 -14 -127 -20 -157 -46 -207 -17
-33 -28 -64 -25 -69 17 -27 165 -60 264 -60 99 0 247 33 264 60 3 5 -8 36 -24
68 -26 50 -33 82 -48 208 l-17 150 -33 19 c-37 22 -182 33 -239 18z m197 -44
c38 -13 35 -4 54 -155 7 -51 6 -53 -13 -43 -26 14 -256 14 -282 0 -19 -10 -20
-8 -13 43 19 151 16 142 54 155 19 7 64 12 100 12 36 0 81 -5 100 -12z m28
-274 c6 -85 -59 -173 -128 -173 -41 0 -89 37 -110 83 -19 41 -27 117 -13 131
4 3 61 5 127 4 l121 -3 3 -42z m-272 -112 c8 -18 13 -35 12 -37 -6 -6 -89 18
-85 25 2 3 12 25 23 48 18 40 20 41 28 20 4 -12 15 -37 22 -56z m361 -17 c-6
-5 -81 -23 -85 -20 -2 2 3 17 11 33 8 15 17 41 21 56 l7 29 24 -48 c13 -26 23
-49 22 -50z"/>
<path d="M410 895 c0 -20 -5 -25 -25 -25 -18 0 -25 -5 -25 -20 0 -15 7 -20 25
-20 21 0 25 -5 25 -30 0 -23 4 -30 20 -30 16 0 20 7 20 30 0 25 4 30 25 30 18
0 25 5 25 20 0 15 -7 20 -25 20 -20 0 -25 5 -25 25 0 18 -5 25 -20 25 -15 0
-20 -7 -20 -25z"/>
<path d="M290 425 c-87 -20 -135 -40 -196 -80 -74 -51 -94 -93 -94 -199 l0
-86 313 2 c269 3 312 5 312 18 0 13 -40 15 -292 18 l-293 2 0 61 c0 33 6 73
14 88 26 49 112 102 211 130 l37 10 58 -125 c33 -68 64 -124 70 -124 6 0 37
56 69 123 50 106 62 124 81 123 34 -1 36 22 3 35 -46 18 -220 21 -293 4z m220
-32 c0 -15 -73 -173 -80 -173 -7 0 -80 158 -80 173 0 9 160 9 160 0z"/>
<path d="M689 401 c-37 -20 -69 -72 -69 -114 0 -16 13 -59 29 -95 16 -37 32
-84 36 -105 9 -45 40 -87 64 -87 29 0 51 33 51 78 0 23 5 42 10 42 6 0 10 -20
10 -43 0 -46 21 -77 53 -77 23 0 54 44 62 87 4 21 20 68 36 105 34 77 36 110
11 157 -29 53 -69 70 -172 70 -65 0 -97 -5 -121 -18z m124 -41 c32 -26 47 -25
47 1 0 18 4 20 28 15 37 -9 72 -51 72 -86 0 -16 -11 -53 -25 -82 -13 -29 -31
-79 -40 -111 -9 -31 -19 -57 -24 -57 -4 0 -11 32 -15 72 -7 76 -17 98 -46 98
-29 0 -39 -22 -46 -98 -4 -40 -11 -72 -15 -72 -5 0 -16 26 -24 58 -9 31 -28
82 -42 113 -19 43 -24 65 -19 92 13 69 94 100 149 57z"/>
</g>
</svg>
