<svg width="337" height="40" viewBox="0 0 337 40" fill="none" xmlns="http://www.w3.org/2000/svg">
<g filter="url(#filter0_d_162_4)">
<mask id="path-1-outside-1_162_4" maskUnits="userSpaceOnUse" x="3" y="-1" width="331" height="34" fill="black">
<rect fill="white" x="3" y="-1" width="331" height="34"/>
<path d="M4.94 31V0.759999H23.42V6.472H10.652V13.024H20.9V18.736H10.652V31H4.94ZM28.0613 31L37.3013 0.759999H45.8273L55.0673 31H49.1873L40.9553 4.33H42.0473L33.9413 31H28.0613ZM33.6053 24.7V19.366H49.5653V24.7H33.6053ZM62.1913 31V0.759999H67.3153L77.3113 20.836L87.3073 0.759999H92.4313V31H87.0973V12.94L78.3193 31H76.3033L67.5253 12.94V31H62.1913ZM102.106 31V0.759999H107.818V31H102.106ZM117.894 31V0.759999H123.606V25.666H136.626V31H117.894ZM146.765 31V18.694L136.433 0.759999H143.111L149.663 12.142L156.215 0.759999H162.893L152.561 18.694V31H146.765Z"/>
<path d="M192.252 31.63C189.228 31.63 186.617 30.972 184.419 29.656C182.235 28.34 180.548 26.499 179.358 24.133C178.182 21.767 177.594 19.016 177.594 15.88C177.594 12.744 178.182 9.993 179.358 7.627C180.548 5.261 182.235 3.42 184.419 2.104C186.617 0.787999 189.228 0.129999 192.252 0.129999C195.724 0.129999 198.636 0.990999 200.988 2.713C203.354 4.435 205.02 6.766 205.986 9.706L200.232 11.302C199.672 9.468 198.727 8.047 197.397 7.039C196.067 6.017 194.352 5.506 192.252 5.506C190.334 5.506 188.731 5.933 187.443 6.787C186.169 7.641 185.21 8.845 184.566 10.399C183.922 11.953 183.6 13.78 183.6 15.88C183.6 17.98 183.922 19.807 184.566 21.361C185.21 22.915 186.169 24.119 187.443 24.973C188.731 25.827 190.334 26.254 192.252 26.254C194.352 26.254 196.067 25.743 197.397 24.721C198.727 23.699 199.672 22.278 200.232 20.458L205.986 22.054C205.02 24.994 203.354 27.325 200.988 29.047C198.636 30.769 195.724 31.63 192.252 31.63ZM214.39 31V0.759999H220.102V25.666H233.122V31H214.39ZM240.473 31V0.759999H246.185V31H240.473ZM255.841 31V0.759999H261.637L274.783 20.92V0.759999H280.579V31H274.783L261.637 10.84V31H255.841ZM290.218 31V0.759999H295.93V31H290.218ZM318.564 31.63C315.54 31.63 312.929 30.972 310.731 29.656C308.547 28.34 306.86 26.499 305.67 24.133C304.494 21.767 303.906 19.016 303.906 15.88C303.906 12.744 304.494 9.993 305.67 7.627C306.86 5.261 308.547 3.42 310.731 2.104C312.929 0.787999 315.54 0.129999 318.564 0.129999C322.036 0.129999 324.948 0.990999 327.3 2.713C329.666 4.435 331.332 6.766 332.298 9.706L326.544 11.302C325.984 9.468 325.039 8.047 323.709 7.039C322.379 6.017 320.664 5.506 318.564 5.506C316.646 5.506 315.043 5.933 313.755 6.787C312.481 7.641 311.522 8.845 310.878 10.399C310.234 11.953 309.912 13.78 309.912 15.88C309.912 17.98 310.234 19.807 310.878 21.361C311.522 22.915 312.481 24.119 313.755 24.973C315.043 25.827 316.646 26.254 318.564 26.254C320.664 26.254 322.379 25.743 323.709 24.721C325.039 23.699 325.984 22.278 326.544 20.458L332.298 22.054C331.332 24.994 329.666 27.325 327.3 29.047C324.948 30.769 322.036 31.63 318.564 31.63Z"/>
</mask>
<path d="M4.94 31V0.759999H23.42V6.472H10.652V13.024H20.9V18.736H10.652V31H4.94ZM28.0613 31L37.3013 0.759999H45.8273L55.0673 31H49.1873L40.9553 4.33H42.0473L33.9413 31H28.0613ZM33.6053 24.7V19.366H49.5653V24.7H33.6053ZM62.1913 31V0.759999H67.3153L77.3113 20.836L87.3073 0.759999H92.4313V31H87.0973V12.94L78.3193 31H76.3033L67.5253 12.94V31H62.1913ZM102.106 31V0.759999H107.818V31H102.106ZM117.894 31V0.759999H123.606V25.666H136.626V31H117.894ZM146.765 31V18.694L136.433 0.759999H143.111L149.663 12.142L156.215 0.759999H162.893L152.561 18.694V31H146.765Z" fill="#FDFDFD"/>
<path d="M192.252 31.63C189.228 31.63 186.617 30.972 184.419 29.656C182.235 28.34 180.548 26.499 179.358 24.133C178.182 21.767 177.594 19.016 177.594 15.88C177.594 12.744 178.182 9.993 179.358 7.627C180.548 5.261 182.235 3.42 184.419 2.104C186.617 0.787999 189.228 0.129999 192.252 0.129999C195.724 0.129999 198.636 0.990999 200.988 2.713C203.354 4.435 205.02 6.766 205.986 9.706L200.232 11.302C199.672 9.468 198.727 8.047 197.397 7.039C196.067 6.017 194.352 5.506 192.252 5.506C190.334 5.506 188.731 5.933 187.443 6.787C186.169 7.641 185.21 8.845 184.566 10.399C183.922 11.953 183.6 13.78 183.6 15.88C183.6 17.98 183.922 19.807 184.566 21.361C185.21 22.915 186.169 24.119 187.443 24.973C188.731 25.827 190.334 26.254 192.252 26.254C194.352 26.254 196.067 25.743 197.397 24.721C198.727 23.699 199.672 22.278 200.232 20.458L205.986 22.054C205.02 24.994 203.354 27.325 200.988 29.047C198.636 30.769 195.724 31.63 192.252 31.63ZM214.39 31V0.759999H220.102V25.666H233.122V31H214.39ZM240.473 31V0.759999H246.185V31H240.473ZM255.841 31V0.759999H261.637L274.783 20.92V0.759999H280.579V31H274.783L261.637 10.84V31H255.841ZM290.218 31V0.759999H295.93V31H290.218ZM318.564 31.63C315.54 31.63 312.929 30.972 310.731 29.656C308.547 28.34 306.86 26.499 305.67 24.133C304.494 21.767 303.906 19.016 303.906 15.88C303.906 12.744 304.494 9.993 305.67 7.627C306.86 5.261 308.547 3.42 310.731 2.104C312.929 0.787999 315.54 0.129999 318.564 0.129999C322.036 0.129999 324.948 0.990999 327.3 2.713C329.666 4.435 331.332 6.766 332.298 9.706L326.544 11.302C325.984 9.468 325.039 8.047 323.709 7.039C322.379 6.017 320.664 5.506 318.564 5.506C316.646 5.506 315.043 5.933 313.755 6.787C312.481 7.641 311.522 8.845 310.878 10.399C310.234 11.953 309.912 13.78 309.912 15.88C309.912 17.98 310.234 19.807 310.878 21.361C311.522 22.915 312.481 24.119 313.755 24.973C315.043 25.827 316.646 26.254 318.564 26.254C320.664 26.254 322.379 25.743 323.709 24.721C325.039 23.699 325.984 22.278 326.544 20.458L332.298 22.054C331.332 24.994 329.666 27.325 327.3 29.047C324.948 30.769 322.036 31.63 318.564 31.63Z" fill="#FFA8AD"/>
<path d="M4.94 31H3.94V32H4.94V31ZM4.94 0.759999V-0.240001H3.94V0.759999H4.94ZM23.42 0.759999H24.42V-0.240001H23.42V0.759999ZM23.42 6.472V7.472H24.42V6.472H23.42ZM10.652 6.472V5.472H9.652V6.472H10.652ZM10.652 13.024H9.652V14.024H10.652V13.024ZM20.9 13.024H21.9V12.024H20.9V13.024ZM20.9 18.736V19.736H21.9V18.736H20.9ZM10.652 18.736V17.736H9.652V18.736H10.652ZM10.652 31V32H11.652V31H10.652ZM5.94 31V0.759999H3.94V31H5.94ZM4.94 1.76H23.42V-0.240001H4.94V1.76ZM22.42 0.759999V6.472H24.42V0.759999H22.42ZM23.42 5.472H10.652V7.472H23.42V5.472ZM9.652 6.472V13.024H11.652V6.472H9.652ZM10.652 14.024H20.9V12.024H10.652V14.024ZM19.9 13.024V18.736H21.9V13.024H19.9ZM20.9 17.736H10.652V19.736H20.9V17.736ZM9.652 18.736V31H11.652V18.736H9.652ZM10.652 30H4.94V32H10.652V30ZM28.0613 31L27.105 30.7078L26.7101 32H28.0613V31ZM37.3013 0.759999V-0.240001H36.5612L36.345 0.46778L37.3013 0.759999ZM45.8273 0.759999L46.7837 0.46778L46.5674 -0.240001H45.8273V0.759999ZM55.0673 31V32H56.4185L56.0237 30.7078L55.0673 31ZM49.1873 31L48.2318 31.2949L48.4494 32H49.1873V31ZM40.9553 4.33V3.33H39.6001L39.9998 4.62493L40.9553 4.33ZM42.0473 4.33L43.0041 4.6208L43.3964 3.33H42.0473V4.33ZM33.9413 31V32H34.6826L34.8981 31.2908L33.9413 31ZM33.6053 24.7H32.6053V25.7H33.6053V24.7ZM33.6053 19.366V18.366H32.6053V19.366H33.6053ZM49.5653 19.366H50.5653V18.366H49.5653V19.366ZM49.5653 24.7V25.7H50.5653V24.7H49.5653ZM29.0177 31.2922L38.2577 1.05222L36.345 0.46778L27.105 30.7078L29.0177 31.2922ZM37.3013 1.76H45.8273V-0.240001H37.3013V1.76ZM44.871 1.05222L54.111 31.2922L56.0237 30.7078L46.7837 0.46778L44.871 1.05222ZM55.0673 30H49.1873V32H55.0673V30ZM50.1428 30.7051L41.9108 4.03507L39.9998 4.62493L48.2318 31.2949L50.1428 30.7051ZM40.9553 5.33H42.0473V3.33H40.9553V5.33ZM41.0905 4.0392L32.9845 30.7092L34.8981 31.2908L43.0041 4.6208L41.0905 4.0392ZM33.9413 30H28.0613V32H33.9413V30ZM34.6053 24.7V19.366H32.6053V24.7H34.6053ZM33.6053 20.366H49.5653V18.366H33.6053V20.366ZM48.5653 19.366V24.7H50.5653V19.366H48.5653ZM49.5653 23.7H33.6053V25.7H49.5653V23.7ZM62.1913 31H61.1913V32H62.1913V31ZM62.1913 0.759999V-0.240001H61.1913V0.759999H62.1913ZM67.3153 0.759999L68.2104 0.314284L67.9344 -0.240001H67.3153V0.759999ZM77.3113 20.836L76.4161 21.2817L77.3113 23.0796L78.2064 21.2817L77.3113 20.836ZM87.3073 0.759999V-0.240001H86.6881L86.4121 0.314284L87.3073 0.759999ZM92.4313 0.759999H93.4313V-0.240001H92.4313V0.759999ZM92.4313 31V32H93.4313V31H92.4313ZM87.0973 31H86.0973V32H87.0973V31ZM87.0973 12.94H88.0973L86.1979 12.5029L87.0973 12.94ZM78.3193 31V32H78.9451L79.2186 31.4371L78.3193 31ZM76.3033 31L75.4039 31.4371L75.6774 32H76.3033V31ZM67.5253 12.94L68.4246 12.5029L66.5253 12.94H67.5253ZM67.5253 31V32H68.5253V31H67.5253ZM63.1913 31V0.759999H61.1913V31H63.1913ZM62.1913 1.76H67.3153V-0.240001H62.1913V1.76ZM66.4201 1.20571L76.4161 21.2817L78.2064 20.3903L68.2104 0.314284L66.4201 1.20571ZM78.2064 21.2817L88.2024 1.20571L86.4121 0.314284L76.4161 20.3903L78.2064 21.2817ZM87.3073 1.76H92.4313V-0.240001H87.3073V1.76ZM91.4313 0.759999V31H93.4313V0.759999H91.4313ZM92.4313 30H87.0973V32H92.4313V30ZM88.0973 31V12.94H86.0973V31H88.0973ZM86.1979 12.5029L77.4199 30.5629L79.2186 31.4371L87.9966 13.3771L86.1979 12.5029ZM78.3193 30H76.3033V32H78.3193V30ZM77.2026 30.5629L68.4246 12.5029L66.6259 13.3771L75.4039 31.4371L77.2026 30.5629ZM66.5253 12.94V31H68.5253V12.94H66.5253ZM67.5253 30H62.1913V32H67.5253V30ZM102.106 31H101.106V32H102.106V31ZM102.106 0.759999V-0.240001H101.106V0.759999H102.106ZM107.818 0.759999H108.818V-0.240001H107.818V0.759999ZM107.818 31V32H108.818V31H107.818ZM103.106 31V0.759999H101.106V31H103.106ZM102.106 1.76H107.818V-0.240001H102.106V1.76ZM106.818 0.759999V31H108.818V0.759999H106.818ZM107.818 30H102.106V32H107.818V30ZM117.894 31H116.894V32H117.894V31ZM117.894 0.759999V-0.240001H116.894V0.759999H117.894ZM123.606 0.759999H124.606V-0.240001H123.606V0.759999ZM123.606 25.666H122.606V26.666H123.606V25.666ZM136.626 25.666H137.626V24.666H136.626V25.666ZM136.626 31V32H137.626V31H136.626ZM118.894 31V0.759999H116.894V31H118.894ZM117.894 1.76H123.606V-0.240001H117.894V1.76ZM122.606 0.759999V25.666H124.606V0.759999H122.606ZM123.606 26.666H136.626V24.666H123.606V26.666ZM135.626 25.666V31H137.626V25.666H135.626ZM136.626 30H117.894V32H136.626V30ZM146.765 31H145.765V32H146.765V31ZM146.765 18.694H147.765V18.4265L147.631 18.1948L146.765 18.694ZM136.433 0.759999V-0.240001H134.703L135.566 1.25919L136.433 0.759999ZM143.111 0.759999L143.977 0.261107L143.689 -0.240001H143.111V0.759999ZM149.663 12.142L148.796 12.6409L149.663 14.1464L150.529 12.6409L149.663 12.142ZM156.215 0.759999V-0.240001H155.637L155.348 0.261107L156.215 0.759999ZM162.893 0.759999L163.759 1.25919L164.623 -0.240001H162.893V0.759999ZM152.561 18.694L151.694 18.1948L151.561 18.4265V18.694H152.561ZM152.561 31V32H153.561V31H152.561ZM147.765 31V18.694H145.765V31H147.765ZM147.631 18.1948L137.299 0.260803L135.566 1.25919L145.898 19.1932L147.631 18.1948ZM136.433 1.76H143.111V-0.240001H136.433V1.76ZM142.244 1.25889L148.796 12.6409L150.529 11.6431L143.977 0.261107L142.244 1.25889ZM150.529 12.6409L157.081 1.25889L155.348 0.261107L148.796 11.6431L150.529 12.6409ZM156.215 1.76H162.893V-0.240001H156.215V1.76ZM162.026 0.260803L151.694 18.1948L153.427 19.1932L163.759 1.25919L162.026 0.260803ZM151.561 18.694V31H153.561V18.694H151.561ZM152.561 30H146.765V32H152.561V30ZM184.419 29.656L183.903 30.5125L183.906 30.514L184.419 29.656ZM179.358 24.133L178.463 24.5781L178.465 24.5823L179.358 24.133ZM179.358 7.627L178.465 7.17767L178.463 7.18191L179.358 7.627ZM184.419 2.104L183.906 1.24602L183.903 1.24748L184.419 2.104ZM200.988 2.713L200.398 3.51986L200.4 3.52153L200.988 2.713ZM205.986 9.706L206.254 10.6696L207.264 10.3895L206.936 9.39385L205.986 9.706ZM200.232 11.302L199.276 11.594L199.561 12.5261L200.5 12.2656L200.232 11.302ZM197.397 7.039L196.788 7.83195L196.793 7.83597L197.397 7.039ZM187.443 6.787L186.891 5.95355L186.887 5.95636L187.443 6.787ZM184.566 10.399L183.643 10.0162L183.643 10.0162L184.566 10.399ZM184.566 21.361L183.643 21.7438L183.643 21.7438L184.566 21.361ZM187.443 24.973L186.887 25.8037L186.891 25.8064L187.443 24.973ZM197.397 24.721L196.788 23.9281L196.788 23.9281L197.397 24.721ZM200.232 20.458L200.5 19.4944L199.563 19.2345L199.277 20.1639L200.232 20.458ZM205.986 22.054L206.936 22.3662L207.264 21.3705L206.254 21.0904L205.986 22.054ZM200.988 29.047L200.4 28.2385L200.398 28.2401L200.988 29.047ZM192.252 30.63C189.376 30.63 186.95 30.0055 184.933 28.798L183.906 30.514C186.285 31.9385 189.08 32.63 192.252 32.63V30.63ZM184.936 28.7995C182.92 27.5848 181.36 25.8879 180.252 23.6837L178.465 24.5823C179.736 27.1101 181.551 29.0952 183.903 30.5125L184.936 28.7995ZM180.254 23.6879C179.158 21.4838 178.594 18.8902 178.594 15.88H176.594C176.594 19.1418 177.207 22.0502 178.463 24.5781L180.254 23.6879ZM178.594 15.88C178.594 12.8698 179.158 10.2762 180.254 8.07209L178.463 7.18191C177.207 9.70977 176.594 12.6182 176.594 15.88H178.594ZM180.252 8.07633C181.36 5.87208 182.92 4.17522 184.936 2.96052L183.903 1.24748C181.551 2.66477 179.736 4.64991 178.465 7.17767L180.252 8.07633ZM184.933 2.96197C186.95 1.75449 189.376 1.13 192.252 1.13V-0.870001C189.08 -0.870001 186.285 -0.178494 183.906 1.24602L184.933 2.96197ZM192.252 1.13C195.554 1.13 198.248 1.94594 200.398 3.51986L201.579 1.90613C199.025 0.0360576 195.895 -0.870001 192.252 -0.870001V1.13ZM200.4 3.52153C202.586 5.11275 204.132 7.26527 205.036 10.0182L206.936 9.39385C205.909 6.26673 204.123 3.75724 201.577 1.90447L200.4 3.52153ZM205.719 8.74238L199.965 10.3384L200.5 12.2656L206.254 10.6696L205.719 8.74238ZM201.189 11.01C200.577 9.0059 199.523 7.39543 198.001 6.24203L196.793 7.83597C197.932 8.69857 198.768 9.9301 199.276 11.594L201.189 11.01ZM198.007 6.24607C196.462 5.05901 194.516 4.506 192.252 4.506V6.506C194.189 6.506 195.673 6.97499 196.788 7.83193L198.007 6.24607ZM192.252 4.506C190.185 4.506 188.378 4.96733 186.891 5.95356L187.996 7.62044C189.085 6.89866 190.483 6.506 192.252 6.506V4.506ZM186.887 5.95636C185.433 6.93074 184.355 8.29834 183.643 10.0162L185.49 10.7818C186.066 9.39166 186.906 8.35126 188 7.61764L186.887 5.95636ZM183.643 10.0162C182.938 11.7176 182.6 13.6802 182.6 15.88H184.6C184.6 13.8798 184.907 12.1884 185.49 10.7818L183.643 10.0162ZM182.6 15.88C182.6 18.0798 182.938 20.0424 183.643 21.7438L185.49 20.9782C184.907 19.5716 184.6 17.8802 184.6 15.88H182.6ZM183.643 21.7438C184.355 23.4617 185.433 24.8293 186.887 25.8036L188 24.1424C186.906 23.4087 186.066 22.3683 185.49 20.9782L183.643 21.7438ZM186.891 25.8064C188.378 26.7927 190.185 27.254 192.252 27.254V25.254C190.483 25.254 189.085 24.8613 187.996 24.1396L186.891 25.8064ZM192.252 27.254C194.516 27.254 196.462 26.701 198.007 25.5139L196.788 23.9281C195.673 24.785 194.189 25.254 192.252 25.254V27.254ZM198.007 25.5139C199.523 24.3489 200.576 22.7424 201.188 20.7521L199.277 20.1639C198.769 21.8136 197.932 23.0491 196.788 23.9281L198.007 25.5139ZM199.965 21.4216L205.719 23.0176L206.254 21.0904L200.5 19.4944L199.965 21.4216ZM205.036 21.7418C204.132 24.4947 202.586 26.6472 200.4 28.2385L201.577 29.8555C204.123 28.0028 205.909 25.4933 206.936 22.3662L205.036 21.7418ZM200.398 28.2401C198.248 29.8141 195.554 30.63 192.252 30.63V32.63C195.895 32.63 199.025 31.7239 201.579 29.8539L200.398 28.2401ZM214.39 31H213.39V32H214.39V31ZM214.39 0.759999V-0.240001H213.39V0.759999H214.39ZM220.102 0.759999H221.102V-0.240001H220.102V0.759999ZM220.102 25.666H219.102V26.666H220.102V25.666ZM233.122 25.666H234.122V24.666H233.122V25.666ZM233.122 31V32H234.122V31H233.122ZM215.39 31V0.759999H213.39V31H215.39ZM214.39 1.76H220.102V-0.240001H214.39V1.76ZM219.102 0.759999V25.666H221.102V0.759999H219.102ZM220.102 26.666H233.122V24.666H220.102V26.666ZM232.122 25.666V31H234.122V25.666H232.122ZM233.122 30H214.39V32H233.122V30ZM240.473 31H239.473V32H240.473V31ZM240.473 0.759999V-0.240001H239.473V0.759999H240.473ZM246.185 0.759999H247.185V-0.240001H246.185V0.759999ZM246.185 31V32H247.185V31H246.185ZM241.473 31V0.759999H239.473V31H241.473ZM240.473 1.76H246.185V-0.240001H240.473V1.76ZM245.185 0.759999V31H247.185V0.759999H245.185ZM246.185 30H240.473V32H246.185V30ZM255.841 31H254.841V32H255.841V31ZM255.841 0.759999V-0.240001H254.841V0.759999H255.841ZM261.637 0.759999L262.474 0.213784L262.179 -0.240001H261.637V0.759999ZM274.783 20.92L273.945 21.4662L275.783 24.2843V20.92H274.783ZM274.783 0.759999V-0.240001H273.783V0.759999H274.783ZM280.579 0.759999H281.579V-0.240001H280.579V0.759999ZM280.579 31V32H281.579V31H280.579ZM274.783 31L273.945 31.5462L274.241 32H274.783V31ZM261.637 10.84L262.474 10.2938L260.637 7.47567V10.84H261.637ZM261.637 31V32H262.637V31H261.637ZM256.841 31V0.759999H254.841V31H256.841ZM255.841 1.76H261.637V-0.240001H255.841V1.76ZM260.799 1.30621L273.945 21.4662L275.62 20.3738L262.474 0.213784L260.799 1.30621ZM275.783 20.92V0.759999H273.783V20.92H275.783ZM274.783 1.76H280.579V-0.240001H274.783V1.76ZM279.579 0.759999V31H281.579V0.759999H279.579ZM280.579 30H274.783V32H280.579V30ZM275.62 30.4538L262.474 10.2938L260.799 11.3862L273.945 31.5462L275.62 30.4538ZM260.637 10.84V31H262.637V10.84H260.637ZM261.637 30H255.841V32H261.637V30ZM290.218 31H289.218V32H290.218V31ZM290.218 0.759999V-0.240001H289.218V0.759999H290.218ZM295.93 0.759999H296.93V-0.240001H295.93V0.759999ZM295.93 31V32H296.93V31H295.93ZM291.218 31V0.759999H289.218V31H291.218ZM290.218 1.76H295.93V-0.240001H290.218V1.76ZM294.93 0.759999V31H296.93V0.759999H294.93ZM295.93 30H290.218V32H295.93V30ZM310.731 29.656L310.215 30.5125L310.217 30.514L310.731 29.656ZM305.67 24.133L304.775 24.5781L304.777 24.5823L305.67 24.133ZM305.67 7.627L304.777 7.17767L304.775 7.18191L305.67 7.627ZM310.731 2.104L310.217 1.24602L310.215 1.24748L310.731 2.104ZM327.3 2.713L326.709 3.51986L326.712 3.52153L327.3 2.713ZM332.298 9.706L332.565 10.6696L333.575 10.3895L333.248 9.39385L332.298 9.706ZM326.544 11.302L325.588 11.594L325.872 12.5261L326.811 12.2656L326.544 11.302ZM323.709 7.039L323.1 7.83195L323.105 7.83597L323.709 7.039ZM313.755 6.787L313.203 5.95355L313.198 5.95636L313.755 6.787ZM310.878 10.399L309.954 10.0162L309.954 10.0162L310.878 10.399ZM310.878 21.361L309.954 21.7438L309.954 21.7438L310.878 21.361ZM313.755 24.973L313.198 25.8037L313.203 25.8064L313.755 24.973ZM323.709 24.721L323.1 23.9281L323.1 23.9281L323.709 24.721ZM326.544 20.458L326.811 19.4944L325.874 19.2345L325.588 20.1639L326.544 20.458ZM332.298 22.054L333.248 22.3662L333.575 21.3705L332.565 21.0904L332.298 22.054ZM327.3 29.047L326.712 28.2385L326.709 28.2401L327.3 29.047ZM318.564 30.63C315.688 30.63 313.262 30.0055 311.245 28.798L310.217 30.514C312.597 31.9385 315.392 32.63 318.564 32.63V30.63ZM311.247 28.7995C309.231 27.5848 307.672 25.8879 306.564 23.6837L304.777 24.5823C306.048 27.1101 307.863 29.0952 310.215 30.5125L311.247 28.7995ZM306.566 23.6879C305.47 21.4838 304.906 18.8902 304.906 15.88H302.906C302.906 19.1418 303.518 22.0502 304.775 24.5781L306.566 23.6879ZM304.906 15.88C304.906 12.8698 305.47 10.2762 306.566 8.07209L304.775 7.18191C303.518 9.70977 302.906 12.6182 302.906 15.88H304.906ZM306.564 8.07633C307.672 5.87208 309.231 4.17522 311.247 2.96052L310.215 1.24748C307.863 2.66477 306.048 4.64991 304.777 7.17767L306.564 8.07633ZM311.245 2.96197C313.262 1.75449 315.688 1.13 318.564 1.13V-0.870001C315.392 -0.870001 312.597 -0.178494 310.217 1.24602L311.245 2.96197ZM318.564 1.13C321.865 1.13 324.56 1.94594 326.709 3.51986L327.891 1.90613C325.337 0.0360576 322.207 -0.870001 318.564 -0.870001V1.13ZM326.712 3.52153C328.898 5.11275 330.444 7.26527 331.348 10.0182L333.248 9.39385C332.221 6.26673 330.434 3.75724 327.889 1.90447L326.712 3.52153ZM332.031 8.74238L326.277 10.3384L326.811 12.2656L332.565 10.6696L332.031 8.74238ZM327.501 11.01C326.889 9.0059 325.835 7.39543 324.313 6.24203L323.105 7.83597C324.243 8.69857 325.08 9.9301 325.588 11.594L327.501 11.01ZM324.318 6.24607C322.774 5.05901 320.828 4.506 318.564 4.506V6.506C320.5 6.506 321.985 6.97499 323.1 7.83193L324.318 6.24607ZM318.564 4.506C316.497 4.506 314.69 4.96733 313.203 5.95356L314.308 7.62044C315.396 6.89866 316.795 6.506 318.564 6.506V4.506ZM313.198 5.95636C311.745 6.93074 310.666 8.29834 309.954 10.0162L311.802 10.7818C312.378 9.39166 313.218 8.35126 314.312 7.61764L313.198 5.95636ZM309.954 10.0162C309.249 11.7176 308.912 13.6802 308.912 15.88H310.912C310.912 13.8798 311.219 12.1884 311.802 10.7818L309.954 10.0162ZM308.912 15.88C308.912 18.0798 309.249 20.0424 309.954 21.7438L311.802 20.9782C311.219 19.5716 310.912 17.8802 310.912 15.88H308.912ZM309.954 21.7438C310.666 23.4617 311.745 24.8293 313.198 25.8036L314.312 24.1424C313.218 23.4087 312.378 22.3683 311.802 20.9782L309.954 21.7438ZM313.203 25.8064C314.69 26.7927 316.497 27.254 318.564 27.254V25.254C316.795 25.254 315.396 24.8613 314.308 24.1396L313.203 25.8064ZM318.564 27.254C320.828 27.254 322.774 26.701 324.318 25.5139L323.1 23.9281C321.985 24.785 320.5 25.254 318.564 25.254V27.254ZM324.318 25.5139C325.835 24.3489 326.888 22.7424 327.5 20.7521L325.588 20.1639C325.081 21.8136 324.244 23.0491 323.1 23.9281L324.318 25.5139ZM326.277 21.4216L332.031 23.0176L332.565 21.0904L326.811 19.4944L326.277 21.4216ZM331.348 21.7418C330.444 24.4947 328.898 26.6472 326.712 28.2385L327.889 29.8555C330.434 28.0028 332.221 25.4933 333.248 22.3662L331.348 21.7418ZM326.709 28.2401C324.56 29.8141 321.865 30.63 318.564 30.63V32.63C322.207 32.63 325.337 31.7239 327.891 29.8539L326.709 28.2401Z" fill="black" mask="url(#path-1-outside-1_162_4)"/>
</g>
<defs>
<filter id="filter0_d_162_4" x="0.939941" y="0.130005" width="335.358" height="39.5" filterUnits="userSpaceOnUse" color-interpolation-filters="sRGB">
<feFlood flood-opacity="0" result="BackgroundImageFix"/>
<feColorMatrix in="SourceAlpha" type="matrix" values="0 0 0 0 0 0 0 0 0 0 0 0 0 0 0 0 0 0 127 0" result="hardAlpha"/>
<feOffset dy="4"/>
<feGaussianBlur stdDeviation="2"/>
<feComposite in2="hardAlpha" operator="out"/>
<feColorMatrix type="matrix" values="0 0 0 0 0 0 0 0 0 0 0 0 0 0 0 0 0 0 0.25 0"/>
<feBlend mode="normal" in2="BackgroundImageFix" result="effect1_dropShadow_162_4"/>
<feBlend mode="normal" in="SourceGraphic" in2="effect1_dropShadow_162_4" result="shape"/>
</filter>
</defs>
</svg>
